<svg width="102" height="102" viewBox="0 0 102 102" fill="none" xmlns="http://www.w3.org/2000/svg">
<path d="M102 15.1406V71.918L96.0234 77.8945H5.97656L0 71.918V15.1406C0 13.467 1.31464 12.1523 2.98828 12.1523H99.0117C100.685 12.1523 102 13.467 102 15.1406Z" fill="#AB0B00"/>
<path d="M102 15.1406V71.918L96.0234 77.8945H51V12.1523H99.0117C100.685 12.1523 102 13.467 102 15.1406Z" fill="#AB0B00"/>
<path d="M96.0234 18.1289H5.97656V77.8945H96.0234V18.1289Z" fill="#F36C62"/>
<path d="M96.0234 18.1289H51V77.8945H96.0234V18.1289Z" fill="#DD3E33"/>
<path d="M82.8711 2.98828V74.9062C82.8711 76.0273 82.0041 76.8945 80.8828 76.8945H21.1172C19.9959 76.8945 19.1289 76.0273 19.1289 74.9062V2.98828C19.1289 1.86693 19.9958 1 21.1172 1H80.8828C82.0042 1 82.8711 1.86693 82.8711 2.98828Z" fill="white" stroke="#5AAAE7" stroke-width="2"/>
<path d="M83.8711 2.98828V74.9062C83.8711 76.5795 82.5564 77.8945 80.8828 77.8945H51V0H80.8828C82.5564 0 83.8711 1.31464 83.8711 2.98828Z" fill="#5AAAE7"/>
<path d="M65.9414 80.8828H36.0586V99.0117H65.9414V80.8828Z" fill="#D4D4D4"/>
<path d="M65.9414 80.8828H51V99.0117H65.9414V80.8828Z" fill="#BABAB8"/>
<path d="M77.8945 99.0117C77.8945 100.685 76.5799 102 74.9062 102H27.0938C25.4201 102 24.1055 100.685 24.1055 99.0117C24.1055 97.3381 25.4201 96.0234 27.0938 96.0234H74.9062C76.5799 96.0234 77.8945 97.3381 77.8945 99.0117Z" fill="#D4D4D4"/>
<path d="M35.5714 31C35.0962 31 34.621 30.8242 34.2584 30.4726L30.5441 26.8726C29.8186 26.1695 29.8186 25.0304 30.5441 24.3273C31.2695 23.6242 32.4448 23.6242 33.1702 24.3273L35.5714 26.6547L39.8298 22.5273C40.5552 21.8242 41.7305 21.8242 42.4559 22.5273C43.1814 23.2304 43.1814 24.3695 42.4559 25.0726L36.8845 30.4726C36.5217 30.8242 36.0465 31 35.5714 31Z" fill="#5AAAE7"/>
<path d="M35.5714 42C35.0962 42 34.621 41.8242 34.2584 41.4726L30.5441 37.8726C29.8186 37.1695 29.8186 36.0304 30.5441 35.3273C31.2695 34.6242 32.4448 34.6242 33.1702 35.3273L35.5714 37.6547L39.8298 33.5273C40.5552 32.8242 41.7305 32.8242 42.4559 33.5273C43.1814 34.2304 43.1814 35.3695 42.4559 36.0726L36.8845 41.4726C36.5217 41.8242 36.0465 42 35.5714 42Z" fill="#5AAAE7"/>
<path d="M35.5714 53C35.0962 53 34.621 52.8242 34.2584 52.4726L30.5441 48.8726C29.8186 48.1695 29.8186 47.0304 30.5441 46.3273C31.2695 45.6242 32.4448 45.6242 33.1702 46.3273L35.5714 48.6547L39.8298 44.5273C40.5552 43.8242 41.7305 43.8242 42.4559 44.5273C43.1814 45.2304 43.1814 46.3695 42.4559 47.0726L36.8845 52.4726C36.5217 52.8242 36.0465 53 35.5714 53Z" fill="#5AAAE7"/>
<path d="M68.6667 26H59.3333C58.0436 26 57 25.1055 57 24C57 22.8945 58.0436 22 59.3333 22H68.6667C69.9564 22 71 22.8945 71 24C71 25.1055 69.9564 26 68.6667 26Z" fill="#88C2EE"/>
<path d="M68.6667 40H59.3333C58.0436 40 57 38.8818 57 37.5C57 36.1182 58.0436 35 59.3333 35H68.6667C69.9564 35 71 36.1182 71 37.5C71 38.8818 69.9564 40 68.6667 40Z" fill="#88C2EE"/>
<path d="M68.6667 53H59.3333C58.0436 53 57 52.1055 57 51C57 49.8945 58.0436 49 59.3333 49H68.6667C69.9564 49 71 49.8945 71 51C71 52.1055 69.9564 53 68.6667 53Z" fill="#88C2EE"/>
<path d="M77.8945 99.0117C77.8945 100.685 76.5799 102 74.9062 102H51V96.0234H74.9062C76.5799 96.0234 77.8945 97.3381 77.8945 99.0117Z" fill="#BABAB8"/>
<path d="M102 71.918V80.8828C102 82.5561 100.685 83.8711 99.0117 83.8711H2.98828C1.31464 83.8711 0 82.5561 0 80.8828V71.918H102Z" fill="#D4D4D4"/>
<path d="M102 71.918V80.8828C102 82.5561 100.685 83.8711 99.0117 83.8711H51V71.918H102Z" fill="#BABAB8"/>
</svg>
