<svg width="111" height="108" viewBox="0 0 111 108" fill="none" xmlns="http://www.w3.org/2000/svg">
<g clip-path="url(#clip0)">
<path d="M93.5 33.0001C92.0417 33.0001 91.6667 38 91.6667 67.6667V91.3334C91.6667 93.6251 89.7917 95.5001 87.5 95.5001H12.5C10.2083 95.5001 8.33333 93.6251 8.33333 91.3334V33.0001H55.5C66.5 33.0001 66 32.0417 66 31C66 24.375 72.3333 17.1667 76 12.1667H12.5C5.625 12.1667 0 17.7917 0 24.6667V91.3334C0 98.2084 5.625 103.833 12.5 103.833H87.5C94.375 103.833 100 98.2084 100 91.3334V33.0001C98.6667 33.5001 94.9583 33.0001 93.5 33.0001Z" fill="#548AFF"/>
<path d="M55.2086 85.0833C54.4878 85.0833 53.7669 84.8333 53.1753 84.3291C51.8669 83.2041 51.7128 81.2333 52.8378 79.9208L57.3419 74.6666L52.8336 69.4083C51.7086 68.1 51.8628 66.125 53.1711 65C54.4836 63.8749 56.4544 64.0333 57.5794 65.3374L63.8295 72.6291C64.8336 73.8 64.8336 75.525 63.8295 76.7L57.5794 83.9916C56.9628 84.7125 56.0878 85.0833 55.2086 85.0833Z" fill="#DD3E33"/>
<path d="M28.1252 85.0832C27.246 85.0832 26.371 84.7124 25.7502 83.9915L19.5002 76.6999C18.496 75.529 18.496 73.804 19.5002 72.629L25.7502 65.3374C26.871 64.029 28.8419 63.8749 30.1585 64.9999C31.4669 66.1249 31.621 68.0957 30.496 69.4082L25.9919 74.6665L30.5002 79.9249C31.6252 81.2332 31.471 83.2082 30.1627 84.3332C29.571 84.8332 28.846 85.0832 28.1252 85.0832Z" fill="#DD3E33"/>
<path d="M37.8415 91.25C36.1581 90.8625 35.1123 89.1875 35.4956 87.5041L41.7456 60.4208C42.1331 58.7416 43.8123 57.6833 45.4915 58.0791C47.1748 58.4666 48.2206 60.1416 47.8373 61.825L41.5873 88.9083C41.1915 90.6333 39.4623 91.6458 37.8415 91.25Z" fill="#DD3E33"/>
</g>
<g clip-path="url(#clip1)">
<path d="M65.2981 23.3519C61.4159 22.8241 56.8872 24.5026 53.761 27.6292L48.5406 32.8496C47.9504 33.4398 47.8293 34.3535 48.2474 35.0774C48.6555 35.7916 49.5101 36.1555 50.3234 35.9378C53.636 35.0495 58.0205 34.7539 59.0986 35.5773L65.2981 23.3519Z" fill="#F36C62"/>
<path d="M87.5357 45.7288L75.2925 51.635C75.9746 52.5641 75.9208 55.5028 75.1258 60.8842C75.007 61.6802 75.4185 62.4506 76.1212 62.802C76.8321 63.1615 77.6924 63.0226 78.2558 62.4593L83.4761 57.2389C86.4254 54.2896 88.0197 49.7715 87.5357 45.7288Z" fill="#DD3E33"/>
<path d="M77.1329 52.2646C72.8263 54.5876 72.2784 54.7183 71.6256 55.1619C70.8946 55.6315 69.9549 55.5272 69.3286 54.9009L56.2775 41.8498C55.6771 41.2495 55.5469 40.2834 56.0165 39.5528C56.4601 38.9 56.5125 38.4824 58.8614 33.9931L64.0299 33.9407L77.081 46.9918L77.1329 52.2646Z" fill="#7C8388"/>
<path d="M77.1329 52.2647C72.8262 54.5877 72.2783 54.7184 71.6256 55.162C70.8945 55.6316 69.9548 55.5273 69.3285 54.901L62.8027 48.3752L70.6335 40.5449L77.0805 46.9919L77.1329 52.2647Z" fill="#575F64"/>
<path d="M77.1328 52.2645L58.8613 33.993C67.9187 16.8963 78.8035 6.22008 91.4369 2.04419L100.312 10.8665L108.977 19.5327C104.801 32.1137 94.1517 43.0764 77.1328 52.2645Z" fill="#FAECD8"/>
<path d="M77.1327 52.2648L68.0229 43.155L100.312 10.8667L108.977 19.5324C104.801 32.1139 94.1517 43.0766 77.1327 52.2648Z" fill="#F4D7AF"/>
<path d="M94.6215 16.5571L94.5432 16.4788C90.9412 12.8768 85.094 12.8763 81.492 16.4788C77.89 20.0808 77.89 25.9279 81.492 29.5294L81.5704 29.6078C85.1724 33.1055 90.9671 33.1055 94.5432 29.5294C98.1192 25.9539 98.1192 20.1587 94.6215 16.5571Z" fill="#64E1DC"/>
<path d="M94.5431 29.5292C90.9671 33.1052 85.1723 33.1052 81.5703 29.6075L94.6215 16.5569C98.1192 20.1584 98.1192 25.9536 94.5431 29.5292Z" fill="#00C8C8"/>
<path d="M108.977 19.5323C104.984 19.2454 100.703 17.366 97.2318 13.9467L97.1534 13.8683C93.6557 10.3706 91.698 6.06349 91.437 2.0438C92.6377 1.62611 93.8643 1.28677 95.0914 0.999823C99.5547 -0.0181976 104.227 -0.253236 109.082 0.269232C109.552 0.321143 109.995 0.556181 110.256 0.921477C110.517 1.18247 110.701 1.52181 110.727 1.91354C111.275 6.74217 110.988 11.4146 109.97 15.8779C109.683 17.105 109.369 18.3057 108.977 19.5323Z" fill="#F36C62"/>
<path d="M108.977 19.5322C104.984 19.2453 100.703 17.3659 97.2314 13.9466L110.256 0.921387C110.517 1.18238 110.7 1.52172 110.726 1.91345C111.274 6.74256 110.987 11.4145 109.969 15.8778C109.682 17.1049 109.369 18.3056 108.977 19.5322Z" fill="#DD3E33"/>
<path d="M76.8196 36.029C76.7936 35.5849 76.611 35.1937 76.2976 34.8803C75.9842 34.4626 75.4887 34.1756 74.9667 34.1756C68.1799 34.1233 66.6658 36.5246 66.2746 36.9163C54.9725 48.2184 54.8418 53.7786 54.8418 54.3524C54.8678 54.8485 55.0504 55.2926 55.3897 55.6315C55.4157 55.6574 55.4421 55.6839 55.4945 55.6839C55.7555 55.9448 56.1208 56.1015 56.5121 56.1275C57.4517 56.2318 62.7504 56.1015 74.1049 44.7471C76.6634 42.1891 76.846 39.8137 76.8196 36.029Z" fill="#F36C62"/>
<path d="M76.8192 36.0291C76.8457 39.8138 76.663 42.1892 74.1045 44.7472C62.7501 56.1016 57.4514 56.2319 56.5122 56.1276C56.1204 56.1016 55.7551 55.9449 55.4941 55.6839L76.2977 34.8804C76.6106 35.1938 76.7933 35.585 76.8192 36.0291Z" fill="#DD3E33"/>
</g>
<defs>
<clipPath id="clip0">
<rect width="100" height="100" fill="white" transform="translate(0 8)"/>
</clipPath>
<clipPath id="clip1">
<rect width="63" height="63" fill="white" transform="translate(48)"/>
</clipPath>
</defs>
</svg>
