<svg width="102" height="102" viewBox="0 0 102 102" fill="none" xmlns="http://www.w3.org/2000/svg">
<path d="M12.7499 87.4286H7.28557C4.2677 87.4286 1.82129 84.9822 1.82129 81.9643V5.46429C1.82129 2.44641 4.2677 0 7.28557 0H87.4284C90.4463 0 92.8927 2.44641 92.8927 5.46429V81.9643C92.8927 84.9822 90.4463 87.4286 87.4284 87.4286H12.7499Z" fill="#88C2EE"/>
<path d="M7.28557 0H87.4284C90.4463 0 92.8927 2.44641 92.8927 5.46429V14.5714H1.82129V5.46429C1.82129 2.44641 4.2677 0 7.28557 0Z" fill="#DA4836"/>
<path d="M7.28613 5.46436H10.929V9.10721H7.28613V5.46436Z" fill="white"/>
<path d="M14.5713 5.46436H18.2141V9.10721H14.5713V5.46436Z" fill="#548AFF"/>
<path d="M21.8574 5.46436H25.5003V9.10721H21.8574V5.46436Z" fill="#88C2EE"/>
<path d="M10.9287 23.6787H21.8573V34.6073H10.9287V23.6787Z" fill="#F46F64"/>
<path d="M15.104 27.8557L24.2112 18.7485L26.7871 21.3245L17.68 30.4316L15.104 27.8557Z" fill="#DA4836"/>
<path d="M30.9639 21.8572H34.6067V25.5H30.9639V21.8572Z" fill="#5AAAE7"/>
<path d="M38.25 21.8572H85.6071V25.5H38.25V21.8572Z" fill="#5AAAE7"/>
<path d="M30.9639 29.1428H78.321V32.7857H30.9639V29.1428Z" fill="#5AAAE7"/>
<path d="M10.9287 45.5356H21.8573V56.4642H10.9287V45.5356Z" fill="#F46F64"/>
<path d="M15.1045 49.7133L24.2116 40.6062L26.7876 43.1822L17.6804 52.2893L15.1045 49.7133Z" fill="#DA4836"/>
<path d="M30.9639 43.7144H34.6067V47.3572H30.9639V43.7144Z" fill="#5AAAE7"/>
<path d="M38.25 43.7144H85.6071V47.3572H38.25V43.7144Z" fill="#5AAAE7"/>
<path d="M30.9639 51H69.2139V54.6429H30.9639V51Z" fill="#5AAAE7"/>
<path d="M10.9287 67.3928H21.8573V78.3214H10.9287V67.3928Z" fill="#F46F64"/>
<path d="M15.1055 71.5693L24.2126 62.4622L26.7886 65.0381L17.6814 74.1453L15.1055 71.5693Z" fill="#DA4836"/>
<path d="M30.9639 65.5713H34.6067V69.2141H30.9639V65.5713Z" fill="#5AAAE7"/>
<path d="M38.25 65.5713H52.8214V69.2141H38.25V65.5713Z" fill="#5AAAE7"/>
<path d="M30.9639 72.8569H50.9996V76.4998H30.9639V72.8569Z" fill="#5AAAE7"/>
<path d="M78.3215 102C90.3928 102 100.179 92.2142 100.179 80.1428C100.179 68.0714 90.3928 58.2856 78.3215 58.2856C66.2501 58.2856 56.4644 68.0714 56.4644 80.1428C56.4644 92.2142 66.2501 102 78.3215 102Z" fill="#DA4836"/>
<path d="M78.3214 94.7141C86.369 94.7141 92.8929 88.1903 92.8929 80.1427C92.8929 72.0951 86.369 65.5713 78.3214 65.5713C70.2738 65.5713 63.75 72.0951 63.75 80.1427C63.75 88.1903 70.2738 94.7141 78.3214 94.7141Z" fill="#F2F2F2"/>
<path d="M76.5001 87.4286C76.017 87.4286 75.5539 87.2364 75.2123 86.8949L69.748 81.4306L72.3236 78.8551L76.5001 83.0316L85.2302 74.3015L87.8057 76.877L77.7878 86.8949C77.4463 87.2364 76.9832 87.4286 76.5001 87.4286Z" fill="#DA4836"/>
</svg>
