<svg width="113" height="113" viewBox="0 0 113 113" fill="none" xmlns="http://www.w3.org/2000/svg">
<g clip-path="url(#clip0)">
<path d="M11.0085 101.922L10.6309 91.7968C10.5592 89.8761 9.94652 88.0144 8.86309 86.4267L2.29629 76.8032C-0.69424 72.4207 -0.769721 66.6735 2.10472 62.214L13.1366 45.1108L20.8179 70.1099L17.8481 101.808L11.6806 102.501C11.331 102.54 11.0218 102.274 11.0085 101.922Z" fill="#F1D0A5"/>
<path d="M101.991 101.922L102.369 91.7968C102.44 89.876 103.053 88.0144 104.136 86.4267L110.703 76.8031C113.694 72.4206 113.769 66.6735 110.895 62.214L100.163 45.5706L92.1816 70.1099L95.1512 101.808L101.319 102.501C101.669 102.54 101.978 102.274 101.991 101.922Z" fill="#F1D0A5"/>
<path d="M110.895 62.214L100.163 45.5708L98.6845 51.0747L105.865 62.214C108.739 66.6736 108.664 72.4209 105.673 76.8034L99.1063 86.4269C98.0229 88.0147 97.41 89.8761 97.3385 91.7969L96.9575 102.011L101.319 102.501C101.669 102.54 101.978 102.274 101.991 101.922L102.369 91.7971C102.441 89.8763 103.053 88.0147 104.137 86.4269L110.704 76.8034C113.694 72.4207 113.77 66.6736 110.895 62.214Z" fill="#F1B986"/>
<path d="M100.338 67.2141C100.338 70.0822 98.0131 72.407 95.1451 72.407H17.855C14.987 72.407 12.6621 70.0822 12.6621 67.2141V15.6885C12.6621 12.8205 14.987 10.4956 17.855 10.4956H95.1451C98.0131 10.4956 100.338 12.8205 100.338 15.6885V67.2141Z" fill="#5AAAE7"/>
<path d="M95.1448 10.4954H91.6187C94.4867 10.4954 96.8116 12.8205 96.8116 15.6883V67.2138C96.8116 70.0819 94.4867 72.4068 91.6187 72.4068H95.1448C98.0129 72.4068 100.338 70.0819 100.338 67.2138V15.6885C100.338 12.8205 98.0129 10.4954 95.1448 10.4954Z" fill="#2B4D66"/>
<path d="M92.8874 17.6633H22.0594C21.9038 17.6633 21.7769 17.7973 21.7769 17.9619V64.9404C21.7769 65.105 21.9035 65.239 22.0594 65.239H92.8874C93.0432 65.239 93.1699 65.105 93.1699 64.9404V17.9619C93.1699 17.7973 93.0432 17.6633 92.8874 17.6633Z" fill="white"/>
<path d="M92.8872 17.6633H89.1147C89.2706 17.6633 89.3975 17.7973 89.3975 17.9619V64.9404C89.3975 65.105 89.2708 65.239 89.1147 65.239H92.8872C93.043 65.239 93.1699 65.105 93.1699 64.9404V17.9619C93.1697 17.7973 93.043 17.6633 92.8872 17.6633Z" fill="#B1E4F9"/>
<path d="M17.2637 44.3878C16.3218 44.3878 15.5586 43.6244 15.5586 42.6826V40.2198C15.5586 39.2778 16.322 38.5146 17.2637 38.5146C18.2057 38.5146 18.9689 39.2781 18.9689 40.2198V42.6826C18.9689 43.6244 18.2057 44.3878 17.2637 44.3878Z" fill="#2B4D66"/>
<path d="M25.7331 100.426L25.9045 93.0532C25.9339 91.7929 26.1603 90.5453 26.5759 89.3553C27.7432 86.0125 27.0822 82.3029 24.8319 79.5693C24.3583 78.9939 24.2841 78.1875 24.6452 77.5353L34.2085 60.2569C34.9841 58.8556 34.7276 57.109 33.5821 55.9896C32.148 54.5883 29.8399 54.6484 28.4806 56.1225L12.5728 73.3735L13.6193 85.3959L17.8482 101.808L25.1932 101.013C25.4951 100.98 25.726 100.729 25.7331 100.426Z" fill="#F1D0A5"/>
<path d="M34.2082 60.2569C34.9837 58.8557 34.7273 57.109 33.5818 55.9896C32.2896 54.727 30.2902 54.6548 28.9124 55.7303C29.015 55.8106 29.115 55.8965 29.2103 55.9896C30.3558 57.1088 30.6122 58.8557 29.8367 60.2569L20.2734 77.5353C19.9126 78.1875 19.9865 78.994 20.4603 79.5693C22.7106 82.3032 23.3716 86.0125 22.2043 89.3555C21.7887 90.5456 21.5623 91.7934 21.533 93.0534L21.408 98.418C21.3743 99.8705 20.2694 101.073 18.8251 101.229L18.2023 101.297C17.9529 101.324 17.7856 101.566 17.8481 101.809L25.1931 101.013C25.4948 100.981 25.7257 100.729 25.7327 100.426L25.8991 93.2677C25.93 91.9406 26.1333 90.6175 26.5723 89.3648C27.7442 86.0196 27.0839 82.3056 24.8316 79.5693C24.358 78.994 24.2838 78.1875 24.6446 77.5353L34.2082 60.2569Z" fill="#F1B986"/>
<path d="M87.2666 100.426L87.0952 93.0532C87.0658 91.7929 86.8394 90.5453 86.4238 89.3553C85.2565 86.0125 85.9175 82.3029 88.1678 79.5693C88.6414 78.9939 88.7156 78.1875 88.3545 77.5353L78.7912 60.2569C78.0157 58.8556 78.2721 57.109 79.4176 55.9896C80.8517 54.5883 83.1598 54.6484 84.5191 56.1225L100.427 73.3735L99.3804 85.3959L95.1515 101.808L87.8065 101.013C87.5046 100.98 87.2737 100.729 87.2666 100.426Z" fill="#F1D0A5"/>
<path d="M51.026 48.6312H44.8287C43.8867 48.6312 43.1235 47.8678 43.1235 46.9261C43.1235 45.9844 43.8869 45.2209 44.8287 45.2209H51.026C51.968 45.2209 52.7312 45.9844 52.7312 46.9261C52.7312 47.8678 51.9678 48.6312 51.026 48.6312Z" fill="#DD3E33"/>
<path d="M51.026 54.7545H44.8287C43.8867 54.7545 43.1235 53.9911 43.1235 53.0494C43.1235 52.1077 43.8869 51.3442 44.8287 51.3442H51.026C51.968 51.3442 52.7312 52.1077 52.7312 53.0494C52.7312 53.9911 51.9678 54.7545 51.026 54.7545Z" fill="#DD3E33"/>
<path d="M52.6347 31.4409C52.6347 26.1882 48.3765 21.9297 43.1235 21.9297C37.8706 21.9297 33.6123 26.1879 33.6123 31.4409C33.6123 35.2255 35.8233 38.4935 39.0237 40.0249V57.1674C39.0237 57.2784 39.0694 57.3848 39.1497 57.4611L42.8441 60.9725C43.0006 61.1213 43.2462 61.1213 43.4027 60.9725L47.097 57.4611C47.1776 57.3846 47.2231 57.2784 47.2231 57.1674V40.0249C50.4237 38.4935 52.6347 35.2255 52.6347 31.4409Z" fill="#F36C62"/>
<path d="M52.6327 31.2203C52.5247 26.456 48.824 22.4478 44.0817 21.9775C42.8983 21.8601 41.7555 21.9638 40.6855 22.2468C44.7566 23.3238 47.7582 27.0314 47.7582 31.441C47.7582 34.5499 46.2665 37.31 43.9597 39.0454C42.9614 39.7964 42.3468 40.9498 42.3468 42.199V55.0494C42.3468 56.5129 41.7462 57.9124 40.6855 58.9206L42.8445 60.9729C43.0009 61.1216 43.2466 61.1216 43.4031 60.9729L47.0974 57.4615C47.178 57.3849 47.2234 57.2787 47.2234 57.1677V40.0253C50.4863 38.4638 52.7205 35.0983 52.6327 31.2203Z" fill="#DD3E33"/>
<path d="M43.1236 34.6117C42.1816 34.6117 41.4185 33.8483 41.4185 32.9066V29.9757C41.4185 29.0337 42.1819 28.2705 43.1236 28.2705C44.0656 28.2705 44.8288 29.0339 44.8288 29.9757V32.9066C44.8288 33.8483 44.0656 34.6117 43.1236 34.6117Z" fill="#F6F1F1"/>
<path d="M82.5752 21.9297H60.542C59.595 21.9297 58.8271 22.6975 58.8271 23.6446V38.5049C58.8271 39.452 59.595 40.2198 60.542 40.2198H61.8287C62.145 40.2198 62.4374 40.3886 62.5954 40.6625L65.4178 45.5513C65.6628 45.9757 66.2754 45.9757 66.5206 45.5513L69.3432 40.6625C69.5014 40.3886 69.7937 40.2198 70.1099 40.2198H82.575C83.522 40.2198 84.2899 39.452 84.2899 38.5049V23.6446C84.2899 22.6975 83.5223 21.9297 82.5752 21.9297Z" fill="#DD3E33"/>
<path d="M78.3559 32.507H65.5352C64.5933 32.507 63.8301 31.7436 63.8301 30.8018C63.8301 29.8601 64.5935 29.0967 65.5352 29.0967H78.3559C79.2978 29.0967 80.061 29.8601 80.061 30.8018C80.061 31.7436 79.2976 32.507 78.3559 32.507Z" fill="#F36C62"/>
</g>
<defs>
<clipPath id="clip0">
<rect width="113" height="113" fill="white"/>
</clipPath>
</defs>
</svg>
