<svg width="16" height="16" viewBox="0 0 16 16" fill="none" xmlns="http://www.w3.org/2000/svg">
<path d="M15.6413 12.6266L13.1704 10.1554C12.6782 9.66521 11.8632 9.6801 11.3538 10.1896L10.109 11.4342C10.0303 11.3909 9.94891 11.3456 9.86332 11.2975C9.0772 10.862 8.00125 10.2649 6.86904 9.1319C5.73347 7.99647 5.1359 6.91887 4.69899 6.13224C4.65288 6.0489 4.60871 5.96855 4.56508 5.89224L5.40058 5.05799L5.81134 4.64672C6.32143 4.13649 6.3355 3.32168 5.84448 2.83007L3.37353 0.358561C2.88251 -0.132366 2.0671 -0.117473 1.55701 0.39276L0.860609 1.09316L0.879639 1.11205C0.646127 1.41001 0.450998 1.75366 0.305788 2.12424C0.171932 2.47699 0.0885943 2.81361 0.0504877 3.15091C-0.275786 5.85579 0.960265 8.32785 4.31475 11.6824C8.95166 16.319 12.6884 15.9687 12.8496 15.9516C13.2007 15.9096 13.5372 15.8257 13.8791 15.6929C14.2465 15.5494 14.5899 15.3546 14.8877 15.1216L14.9029 15.1351L15.6084 14.4443C16.1174 13.9341 16.1321 13.119 15.6413 12.6266Z" fill="#ACACAC"/>
</svg>
