<svg width="100" height="100" viewBox="0 0 100 100" fill="none" xmlns="http://www.w3.org/2000/svg">
<path d="M50 82.7586V90.5172C50 95.7586 39.1896 100 25.8621 100C12.5345 100 1.72412 95.7586 1.72412 90.5172V78.4482L50 82.7586Z" fill="#DD3E33"/>
<path d="M50 82.7586V90.5172C50 95.7586 60.8103 100 74.1379 100C87.4655 100 98.2759 95.7586 98.2759 90.5172V78.4482L50 82.7586Z" fill="#DD3E33"/>
<path d="M47.431 82.7067C46.5139 83.4013 45.5256 83.9966 44.4827 84.4826C38.5862 86.9248 32.2421 88.0996 25.8621 87.9309C19.482 88.0996 13.1379 86.9248 7.24136 84.4826C3.79309 82.8446 1.72412 80.7412 1.72412 78.4481C1.72412 73.2067 12.5345 68.9653 25.8621 68.9653L47.431 82.7067Z" fill="#F36C62"/>
<path d="M52.5688 82.7067C53.486 83.4013 54.4743 83.9966 55.5171 84.4826C61.4136 86.9248 67.7578 88.0996 74.1378 87.9309C80.5178 88.0996 86.862 86.9248 92.7585 84.4826C96.2068 82.8446 98.2757 80.7412 98.2757 78.4481C98.2757 73.2067 87.4654 68.9653 74.1378 68.9653L52.5688 82.7067Z" fill="#F36C62"/>
<path d="M74.1382 61.2068V73.2757C74.1382 78.5171 63.3278 82.7585 50.0002 82.7585C36.6726 82.7585 25.8623 78.5171 25.8623 73.2757V61.2068H74.1382Z" fill="#DD3E33"/>
<path d="M67.2417 20.6895H62.0693V39.6551C62.0693 41.5595 60.5255 43.1033 58.621 43.1033H41.3797C39.4752 43.1033 37.9314 41.5595 37.9314 39.6551V20.6895H32.759C32.0617 20.6894 31.4332 20.2693 31.1664 19.6251C30.8996 18.981 31.0471 18.2395 31.54 17.7464L48.7814 0.505048C49.4547 -0.168024 50.546 -0.168024 51.2193 0.505048L68.4607 17.7464C68.9536 18.2395 69.1011 18.981 68.8343 19.6251C68.5675 20.2693 67.939 20.6894 67.2417 20.6895Z" fill="#5AAAE7"/>
<path d="M25.8618 50C24.9096 50 24.1377 49.2281 24.1377 48.2759V25.8621C24.1377 24.9099 24.9096 24.1379 25.8618 24.1379C26.814 24.1379 27.586 24.9099 27.586 25.8621V48.2759C27.586 49.2281 26.814 50 25.8618 50Z" fill="#67B9CC"/>
<path d="M15.5171 60.3447C14.5649 60.3447 13.793 59.5728 13.793 58.6206V36.2068C13.793 35.2546 14.5649 34.4827 15.5171 34.4827C16.4693 34.4827 17.2412 35.2546 17.2412 36.2068V58.6206C17.2412 59.5728 16.4693 60.3447 15.5171 60.3447Z" fill="#67B9CC"/>
<path d="M74.1382 50C73.186 50 72.4141 49.2281 72.4141 48.2759V25.8621C72.4141 24.9099 73.186 24.1379 74.1382 24.1379C75.0904 24.1379 75.8623 24.9099 75.8623 25.8621V48.2759C75.8623 49.2281 75.0904 50 74.1382 50Z" fill="#67B9CC"/>
<path d="M84.4824 60.3447C83.5302 60.3447 82.7583 59.5728 82.7583 58.6206V36.2068C82.7583 35.2546 83.5302 34.4827 84.4824 34.4827C85.4346 34.4827 86.2066 35.2546 86.2066 36.2068V58.6206C86.2066 59.5728 85.4346 60.3447 84.4824 60.3447Z" fill="#67B9CC"/>
<path d="M40.2313 52.5759C43.4562 52.0056 46.7252 51.7206 50.0002 51.7242C63.3278 51.7242 74.1382 55.9655 74.1382 61.2069C74.1382 63.5 72.0692 65.6035 68.6209 67.2414C62.7244 69.6836 56.3802 70.8584 50.0002 70.6897C43.6202 70.8584 37.276 69.6836 31.3795 67.2414C27.9313 65.6035 25.8623 63.5 25.8623 61.2069C25.8623 58.2517 29.0071 56.3 31.3451 55.1914C33.2975 54.2929 35.3408 53.6067 37.4399 53.1448C38.3675 52.931 39.2979 52.7414 40.2313 52.5759Z" fill="#F36C62"/>
</svg>
