<svg width="13" height="17" viewBox="0 0 13 17" fill="none" xmlns="http://www.w3.org/2000/svg">
<path d="M13 5.95C13 5.16863 12.8319 4.39492 12.5052 3.67303C12.1786 2.95115 11.6998 2.29522 11.0962 1.74271C10.4926 1.19021 9.77606 0.751932 8.98744 0.452917C8.19883 0.153901 7.35359 0 6.5 0C5.64641 0 4.80117 0.153901 4.01256 0.452917C3.22394 0.751932 2.50739 1.19021 1.90381 1.74271C1.30023 2.29522 0.821438 2.95115 0.494783 3.67303C0.168127 4.39492 -1.27195e-08 5.16863 0 5.95C0 7.12895 0.380714 8.22545 1.02607 9.15025H1.01864C3.21007 12.291 6.5 17 6.5 17L11.9814 9.15025H11.9749C12.6438 8.19516 12.9996 7.08453 13 5.95ZM6.5 8.5C5.76118 8.5 5.05262 8.23134 4.5302 7.75312C4.00778 7.27491 3.71429 6.6263 3.71429 5.95C3.71429 5.2737 4.00778 4.6251 4.5302 4.14688C5.05262 3.66866 5.76118 3.4 6.5 3.4C7.23882 3.4 7.94737 3.66866 8.4698 4.14688C8.99222 4.6251 9.28571 5.2737 9.28571 5.95C9.28571 6.6263 8.99222 7.27491 8.4698 7.75312C7.94737 8.23134 7.23882 8.5 6.5 8.5Z" fill="#ACACAC"/>
</svg>
