<svg width="102" height="102" viewBox="0 0 102 102" fill="none" xmlns="http://www.w3.org/2000/svg">
<path d="M22.3128 78.0936C20.622 78.0936 19.0005 77.4219 17.805 76.2264C16.6095 75.0308 15.9379 73.4093 15.9379 71.7186V60.5625H36.6562V49.4063H14.344C11.8079 49.4062 9.37563 50.4137 7.58231 52.207C5.789 54.0003 4.78151 56.4325 4.78147 58.9686L4.78125 73.3125C4.78121 75.6147 5.23464 77.8944 6.11564 80.0214C6.99664 82.1484 8.28796 84.081 9.91586 85.709C11.5438 87.3369 13.4764 88.6282 15.6034 89.5093C17.7303 90.3903 20.01 90.8438 22.3122 90.8438H82.8749V97.2188L97.2188 84.4688L82.8749 71.7188V78.0938L22.3128 78.0936Z" fill="#548AFF"/>
<path d="M79.6877 23.9073C81.3785 23.9074 83 24.579 84.1955 25.7746C85.3911 26.9701 86.0627 28.5916 86.0628 30.2824V41.4385H65.344V52.5947H87.6567C90.1928 52.5948 92.6251 51.5873 94.4184 49.794C96.2118 48.0007 97.2193 45.5685 97.2194 43.0324L97.2196 28.6885C97.2196 26.3862 96.7661 24.1065 95.8851 21.9795C95.0041 19.8525 93.7127 17.9199 92.0848 16.292C90.4569 14.664 88.5242 13.3727 86.3972 12.4917C84.2702 11.6106 81.9905 11.1572 79.6882 11.1572H19.1244V4.78223L4.78027 17.5322L19.1244 30.2822V23.9072L79.6877 23.9073Z" fill="#548AFF"/>
<path d="M74.9062 55.7812H81.2812V46.2188H76.4761C76.0259 46.219 75.5883 46.0707 75.231 45.7968C74.8738 45.523 74.6169 45.1389 74.5002 44.7041C74.3835 44.2694 74.4136 43.8083 74.5857 43.3924C74.7578 42.9764 75.0623 42.6289 75.4521 42.4037L79.6158 39.9991L74.8346 31.7196L70.6709 34.1222C70.2811 34.3473 69.8279 34.4375 69.3816 34.3788C68.9353 34.3201 68.5209 34.1157 68.2026 33.7974C67.8843 33.4791 67.6799 33.0647 67.6212 32.6184C67.5625 32.1721 67.6527 31.7189 67.8778 31.3291L70.2804 27.1654L62.0008 22.3842L59.5963 26.5479C59.371 26.9375 59.0235 27.242 58.6076 27.414C58.1917 27.586 57.7307 27.616 57.296 27.4994C56.8613 27.3827 56.4772 27.1259 56.2034 26.7687C55.9295 26.4115 55.7811 25.974 55.7812 25.5239V20.7188H46.2188V25.5239C46.219 25.9743 46.0705 26.4122 45.7963 26.7695C45.5222 27.1269 45.1378 27.3837 44.7027 27.5002C44.53 27.5469 44.3517 27.5704 44.1728 27.5699C43.8141 27.57 43.4618 27.4756 43.1512 27.2961C42.8406 27.1167 42.5828 26.8586 42.4037 26.5479L39.9991 22.3842L31.7196 27.1654L34.1222 31.3291C34.3473 31.7189 34.4375 32.1721 34.3788 32.6184C34.3201 33.0647 34.1157 33.4791 33.7974 33.7974C33.4791 34.1157 33.0647 34.3201 32.6184 34.3788C32.1721 34.4375 31.7189 34.3473 31.3291 34.1222L27.1654 31.7196L22.3842 39.9992L26.5479 42.4037C26.9377 42.6289 27.2422 42.9764 27.4143 43.3924C27.5864 43.8083 27.6165 44.2694 27.4998 44.7041C27.3831 45.1389 27.1262 45.523 26.7689 45.7968C26.4117 46.0707 25.9741 46.219 25.5239 46.2188H20.7188V55.7812H25.5239C25.9741 55.781 26.4117 55.9293 26.7689 56.2032C27.1262 56.477 27.3831 56.8611 27.4998 57.2959C27.6165 57.7306 27.5864 58.1917 27.4143 58.6076C27.2422 59.0236 26.9377 59.3711 26.5479 59.5963L22.3842 62.0009L27.1654 70.2804L31.3291 67.8778C31.7189 67.6527 32.1721 67.5625 32.6184 67.6212C33.0647 67.6799 33.4791 67.8843 33.7974 68.2026C34.1157 68.5209 34.3201 68.9353 34.3788 69.3816C34.4375 69.8279 34.3473 70.2811 34.1222 70.6709L31.7196 74.8346L39.9992 79.6158L42.4037 75.4521C42.629 75.0625 42.9765 74.758 43.3924 74.586C43.8083 74.414 44.2693 74.384 44.704 74.5006C45.1387 74.6173 45.5228 74.8741 45.7966 75.2313C46.0705 75.5885 46.2189 76.026 46.2188 76.4761V81.2812H55.7812V76.4761C55.781 76.0257 55.9295 75.5878 56.2036 75.2305C56.4778 74.8731 56.8622 74.6163 57.2973 74.4998C57.47 74.4531 57.6483 74.4296 57.8272 74.4301C58.1859 74.43 58.5382 74.5244 58.8488 74.7038C59.1594 74.8833 59.4172 75.1414 59.5963 75.4521L62.0009 79.6158L70.2804 74.8346L67.8778 70.6709C67.6527 70.2811 67.5625 69.8279 67.6212 69.3816C67.6799 68.9353 67.8843 68.5209 68.2026 68.2026C68.5209 67.8843 68.9353 67.6799 69.3816 67.6212C69.8279 67.5625 70.2811 67.6527 70.6709 67.8778L74.8346 70.2804L79.6158 62.0008L75.4521 59.5963C75.0626 59.3712 74.7582 59.0239 74.5861 58.6083C74.4139 58.1927 74.3836 57.7319 74.4998 57.2973L74.9062 55.7812ZM51 62.1562C48.7935 62.1562 46.6366 61.5019 44.8019 60.2761C42.9673 59.0502 41.5374 57.3078 40.693 55.2693C39.8486 53.2308 39.6276 50.9876 40.0581 48.8235C40.4886 46.6594 41.5511 44.6716 43.1113 43.1113C44.6716 41.5511 46.6594 40.4886 48.8235 40.0581C50.9876 39.6276 53.2308 39.8486 55.2693 40.693C57.3078 41.5374 59.0502 42.9673 60.2761 44.8019C61.5019 46.6366 62.1562 48.7935 62.1562 51C62.1563 52.4651 61.8678 53.9158 61.3072 55.2694C60.7465 56.623 59.9248 57.8528 58.8888 58.8888C57.8528 59.9248 56.623 60.7465 55.2694 61.3072C53.9158 61.8678 52.4651 62.1563 51 62.1562Z" fill="#DD3E33"/>
<path d="M51 31.875C47.2174 31.875 43.5198 32.9967 40.3747 35.0981C37.2296 37.1996 34.7783 40.1865 33.3308 43.6812C31.8833 47.1758 31.5045 51.0212 32.2425 54.7311C32.9804 58.441 34.8019 61.8487 37.4766 64.5234C40.1513 67.1981 43.559 69.0196 47.2689 69.7575C50.9788 70.4955 54.8242 70.1167 58.3188 68.6692C61.8135 67.2217 64.8004 64.7704 66.9019 61.6253C69.0033 58.4802 70.125 54.7826 70.125 51C70.1249 45.9278 68.11 41.0633 64.5233 37.4767C60.9367 33.89 56.0723 31.8751 51 31.875ZM51 62.1562C48.7935 62.1562 46.6366 61.5019 44.8019 60.2761C42.9673 59.0502 41.5374 57.3078 40.693 55.2693C39.8486 53.2308 39.6277 50.9876 40.0581 48.8235C40.4886 46.6594 41.5511 44.6716 43.1113 43.1113C44.6716 41.5511 46.6594 40.4886 48.8235 40.0581C50.9876 39.6276 53.2308 39.8486 55.2693 40.693C57.3079 41.5374 59.0502 42.9673 60.2761 44.8019C61.502 46.6366 62.1563 48.7935 62.1563 51C62.1563 52.4651 61.8678 53.9158 61.3072 55.2694C60.7465 56.623 59.9248 57.8528 58.8888 58.8888C57.8528 59.9248 56.623 60.7465 55.2694 61.3072C53.9158 61.8678 52.4651 62.1563 51 62.1562Z" fill="#F36C62"/>
</svg>
