<svg width="102" height="102" viewBox="0 0 102 102" fill="none" xmlns="http://www.w3.org/2000/svg">
<g clip-path="url(#clip0)">
<path d="M64.3121 98.5425L59.6439 82.9832H42.3558L37.6877 98.5425H31.9829V102H70.0168V98.5425H64.3121Z" fill="#E0E0DE"/>
<path d="M61.2 88.1696L59.6442 82.9832H42.3561L40.8003 88.1696H61.2Z" fill="#D6D6D4"/>
<path d="M87.3049 13.8306H95.949C98.8132 13.8306 101.135 16.1528 101.135 19.017V72.6102H0.864258V19.017C0.864258 16.1528 3.18651 13.8306 6.0507 13.8306H11.2371" fill="#ACD7F9"/>
<path d="M0.864258 72.6101V77.7965C0.864258 80.6607 3.18651 82.983 6.0507 82.983H95.949C98.8132 82.983 101.135 80.6607 101.135 77.7965V72.6101H0.864258Z" fill="#E0E0DE"/>
<path d="M73.4746 0H16.4237C13.5596 0 11.2373 2.32225 11.2373 5.18644V72.6102H90.7627V17.2881L73.4746 0Z" fill="#F36C62"/>
<path d="M23.3389 72.6102H90.7626V17.2882L84.7117 11.2373L23.3389 72.6102Z" fill="#DD3E33"/>
<path d="M16.4238 5.1864H19.8815V8.64403H16.4238V5.1864Z" fill="#DD3E33"/>
<path d="M23.3389 5.1864H26.7965V8.64403H23.3389V5.1864Z" fill="#DD3E33"/>
<path d="M30.2544 5.1864H33.712V8.64403H30.2544V5.1864Z" fill="#DD3E33"/>
<path d="M16.4238 15.5593H33.712V19.017H16.4238V15.5593Z" fill="#DD3E33"/>
<path d="M16.4238 22.4746H33.712V25.9322H16.4238V22.4746Z" fill="#DD3E33"/>
<path d="M16.4238 29.3899H26.7967V32.8475H16.4238V29.3899Z" fill="#DD3E33"/>
<path d="M82.1187 50.1356H85.5763V53.5933H82.1187V50.1356Z" fill="#419BC2"/>
<path d="M68.2881 57.0509H85.5762V60.5085H68.2881V57.0509Z" fill="#419BC2"/>
<path d="M68.2881 63.9661H85.5762V67.4237H68.2881V63.9661Z" fill="#419BC2"/>
<path d="M68.2881 50.1356H78.661V53.5933H68.2881V50.1356Z" fill="#419BC2"/>
<path d="M16.4238 57.0509H28.5255V60.5085H16.4238V57.0509Z" fill="#DD3E33"/>
<path d="M16.4238 63.9661H33.712V67.4237H16.4238V63.9661Z" fill="#DD3E33"/>
<path d="M90.7627 17.2881H80.3899C76.5709 17.2881 73.4746 14.1918 73.4746 10.3729V0L90.7627 17.2881Z" fill="#E65147"/>
<path d="M11.2373 69.1525H90.7627V72.6101H11.2373V69.1525Z" fill="#5AAAE7"/>
<path d="M0.864258 69.1525H11.2371V72.6101H0.864258V69.1525Z" fill="#5AAAE7"/>
<path d="M90.7627 13.8306H94.2203V72.6102H90.7627V13.8306Z" fill="#5AAAE7"/>
<path d="M90.7627 69.1525H101.136V72.6101H90.7627V69.1525Z" fill="#5AAAE7"/>
<path d="M100.062 94.011L83.8476 77.7966L78.6611 82.9831L94.8755 99.1974C96.308 100.63 98.6303 100.63 100.062 99.1974C101.494 97.7658 101.494 95.4435 100.062 94.011Z" fill="#957856"/>
<path d="M89.0129 82.962L83.8476 77.7966L78.6611 82.9831L83.8265 88.1484C85.7916 86.6728 87.5373 84.9271 89.0129 82.962Z" fill="#A78966"/>
<path d="M90.7629 65.6949C90.7629 80.0167 79.1524 91.6271 64.8306 91.6271C50.5088 91.6271 38.8984 80.0167 38.8984 65.6949C38.8984 51.3731 50.5088 39.7627 64.8306 39.7627C79.1524 39.7627 90.7629 51.3731 90.7629 65.6949Z" fill="#5AAAE7"/>
<path d="M83.8474 65.6949C83.8474 76.1978 75.3333 84.7119 64.8304 84.7119C54.3275 84.7119 45.8135 76.1978 45.8135 65.6949C45.8135 55.192 54.3275 46.678 64.8304 46.678C75.3333 46.678 83.8474 55.192 83.8474 65.6949Z" fill="#ACD7F9"/>
<path d="M80.3896 65.6949C80.3896 74.2884 73.4237 81.2543 64.8303 81.2543C56.2369 81.2543 49.271 74.2884 49.271 65.6949C49.271 57.1015 56.2369 50.1356 64.8303 50.1356C73.4237 50.1356 80.3896 57.1015 80.3896 65.6949Z" fill="white"/>
<path d="M56.775 70.168C55.943 70.168 55.243 69.984 54.675 69.616C54.107 69.24 53.707 68.732 53.475 68.092L54.891 67.264C55.219 68.12 55.863 68.548 56.823 68.548C57.287 68.548 57.627 68.464 57.843 68.296C58.059 68.128 58.167 67.916 58.167 67.66C58.167 67.364 58.035 67.136 57.771 66.976C57.507 66.808 57.035 66.628 56.355 66.436C55.979 66.324 55.659 66.212 55.395 66.1C55.139 65.988 54.879 65.84 54.615 65.656C54.359 65.464 54.163 65.224 54.027 64.936C53.891 64.648 53.823 64.312 53.823 63.928C53.823 63.168 54.091 62.564 54.627 62.116C55.171 61.66 55.823 61.432 56.583 61.432C57.263 61.432 57.859 61.6 58.371 61.936C58.891 62.264 59.295 62.724 59.583 63.316L58.191 64.12C57.855 63.4 57.319 63.04 56.583 63.04C56.239 63.04 55.967 63.12 55.767 63.28C55.575 63.432 55.479 63.632 55.479 63.88C55.479 64.144 55.587 64.36 55.803 64.528C56.027 64.688 56.451 64.864 57.075 65.056C57.331 65.136 57.523 65.2 57.651 65.248C57.787 65.288 57.967 65.356 58.191 65.452C58.423 65.54 58.599 65.624 58.719 65.704C58.847 65.784 58.991 65.892 59.151 66.028C59.311 66.164 59.431 66.304 59.511 66.448C59.599 66.592 59.671 66.768 59.727 66.976C59.791 67.176 59.823 67.396 59.823 67.636C59.823 68.412 59.539 69.028 58.971 69.484C58.411 69.94 57.679 70.168 56.775 70.168ZM62.5005 68.416H66.0405V70H60.8445V61.6H65.9805V63.184H62.5005V64.972H65.6805V66.532H62.5005V68.416ZM74.2171 68.908C73.3691 69.748 72.3371 70.168 71.1211 70.168C69.9051 70.168 68.8731 69.748 68.0251 68.908C67.1851 68.06 66.7651 67.024 66.7651 65.8C66.7651 64.576 67.1851 63.544 68.0251 62.704C68.8731 61.856 69.9051 61.432 71.1211 61.432C72.3371 61.432 73.3691 61.856 74.2171 62.704C75.0651 63.544 75.4891 64.576 75.4891 65.8C75.4891 67.024 75.0651 68.06 74.2171 68.908ZM69.1891 67.78C69.7091 68.292 70.3531 68.548 71.1211 68.548C71.8891 68.548 72.5331 68.292 73.0531 67.78C73.5731 67.26 73.8331 66.6 73.8331 65.8C73.8331 65 73.5731 64.34 73.0531 63.82C72.5331 63.3 71.8891 63.04 71.1211 63.04C70.3531 63.04 69.7091 63.3 69.1891 63.82C68.6691 64.34 68.4091 65 68.4091 65.8C68.4091 66.6 68.6691 67.26 69.1891 67.78Z" fill="#DD3E33"/>
</g>
<defs>
<clipPath id="clip0">
<rect width="102" height="102" fill="white"/>
</clipPath>
</defs>
</svg>
