<svg width="100" height="100" viewBox="0 0 100 100" fill="none" xmlns="http://www.w3.org/2000/svg">
<g clip-path="url(#clip0)">
<path d="M90.5863 41.9307C89.5356 36.6 87.4377 31.5312 84.4137 27.0171L90.2243 19.5169L80.4831 9.77573L72.9829 15.5863C68.4688 12.5623 63.4 10.4644 58.0693 9.41373L56.8965 0H43.1034L41.9307 9.41373C36.6 10.4644 31.5312 12.5623 27.0171 15.5863L19.5169 9.77573L9.77573 19.5169L15.5863 27.0171C12.5623 31.5312 10.4644 36.6 9.41373 41.9307L0 43.1034V56.8965L9.41373 58.0693C10.4644 63.4 12.5623 68.4688 15.5863 72.9829L9.77573 80.4831L19.5169 90.2243L27.0171 84.4137C31.5312 87.4377 36.6 89.5356 41.9307 90.5863L43.1034 100H56.8965L58.0693 90.5863C63.4 89.5356 68.4688 87.4377 72.9829 84.4137L80.4831 90.2243L90.2243 80.4831L84.4137 72.9829C87.4377 68.4688 89.5356 63.4 90.5863 58.0693L100 56.8965V43.1034L90.5863 41.9307ZM50 65.5172C41.4298 65.5172 34.4828 58.5702 34.4828 50C34.4828 41.4298 41.4298 34.4828 50 34.4828C58.5702 34.4828 65.5172 41.4298 65.5172 50C65.5172 58.5702 58.5702 65.5172 50 65.5172Z" fill="#DD3E33"/>
<path d="M50.0003 24.1379C35.7172 24.1379 24.1382 35.7169 24.1382 50C24.1382 64.2831 35.7172 75.8621 50.0003 75.8621C64.2833 75.8621 75.8623 64.2831 75.8623 50C75.8623 35.7169 64.2833 24.1379 50.0003 24.1379ZM50.0003 65.5173C41.4301 65.5173 34.483 58.5702 34.483 50C34.483 41.4298 41.4301 34.4828 50.0003 34.4828C58.5704 34.4828 65.5175 41.4298 65.5175 50C65.5175 58.5702 58.5704 65.5173 50.0003 65.5173Z" fill="#F36C62"/>
<path d="M77.5865 77.5862V94.8276C77.5865 97.684 75.2706 100 72.4141 100C69.5577 100 67.2417 97.684 67.2417 94.8276V77.5862H77.5865Z" fill="#957856"/>
<path d="M68.9658 68.9655H75.8624V77.5861H68.9658V68.9655Z" fill="#787680"/>
<path d="M71.5515 27.6291C71.2636 27.619 70.9807 27.5862 70.6894 27.5862C64.3325 27.5862 58.277 30.2945 54.0391 35.0325C54.4996 35.1571 54.95 35.301 55.3928 35.4652C59.448 30.7112 65.3074 27.8699 71.5515 27.6291Z" fill="#57565C"/>
<path d="M68.9655 72.1224C63.6752 71.2974 58.8556 68.6068 55.3778 64.5364C54.9409 64.698 54.4964 64.8411 54.0435 64.964C57.4884 68.7962 62.1498 71.3243 67.2414 72.1224V77.5861H68.9655V72.1224Z" fill="#57565C"/>
<path d="M65.5171 77.5862V88.3604C66.0988 88.1238 66.6738 87.8746 67.2412 87.6136V77.5862H65.5171Z" fill="#57565C"/>
<path d="M70.69 79.3103C71.6421 79.3103 72.4141 80.0823 72.4141 81.0344V86.2069C72.4141 87.159 71.6421 87.931 70.69 87.931C69.7378 87.931 68.9658 87.159 68.9658 86.2069V81.0344C68.9658 80.0823 69.7378 79.3103 70.69 79.3103Z" fill="#A78966"/>
<path d="M68.9658 70.6896H70.6899V77.5862H68.9658V70.6896Z" fill="#898890"/>
<path d="M94.8276 50C94.8276 62.3787 84.7926 72.4138 72.4138 72.4138C60.035 72.4138 50 62.3787 50 50C50 37.6212 60.035 27.5862 72.4138 27.5862C84.7926 27.5862 94.8276 37.6212 94.8276 50Z" fill="#5AAAE7"/>
<path d="M72.4137 67.2413C62.8914 67.2413 55.1724 59.5222 55.1724 49.9999C55.1724 40.4776 62.8914 32.7585 72.4137 32.7585V36.2068C64.7957 36.2068 58.6206 42.3819 58.6206 49.9999C58.6206 57.618 64.7957 63.793 72.4137 63.793V67.2413Z" fill="white"/>
</g>
<defs>
<clipPath id="clip0">
<rect width="100" height="100" fill="white"/>
</clipPath>
</defs>
</svg>
