<svg width="322" height="190" viewBox="0 0 322 190" fill="none" xmlns="http://www.w3.org/2000/svg">
<rect width="322" height="190" fill="#D43E33"/>
<path d="M39.8916 25.5899V141.09H21.7416V25.5899H39.8916ZM69.3325 141.09H52.9975V25.5899H75.7675L94.4125 94.7249V25.5899H110.583V141.09H91.9375L69.3325 57.4349V141.09ZM121.268 53.3099C121.268 43.9599 123.523 36.8099 128.033 31.8599C132.543 26.7999 139.198 24.2699 147.998 24.2699C156.798 24.2699 163.453 26.7999 167.963 31.8599C172.473 36.8099 174.728 43.9599 174.728 53.3099V56.9399H157.568V52.1549C157.568 48.1949 156.798 45.3349 155.258 43.5749C153.718 41.7049 151.463 40.7699 148.493 40.7699C145.523 40.7699 143.268 41.7049 141.728 43.5749C140.188 45.3349 139.418 48.1949 139.418 52.1549C139.418 56.9949 140.683 61.2299 143.213 64.8599C145.853 68.4899 149.758 72.6149 154.928 77.2349C159.218 81.1949 162.683 84.7149 165.323 87.7949C167.963 90.7649 170.218 94.3949 172.088 98.6849C173.958 102.975 174.893 107.87 174.893 113.37C174.893 122.72 172.583 129.925 167.963 134.985C163.343 139.935 156.633 142.41 147.833 142.41C139.033 142.41 132.323 139.935 127.703 134.985C123.083 129.925 120.773 122.72 120.773 113.37V106.275H137.933V114.525C137.933 122.005 141.068 125.745 147.338 125.745C153.608 125.745 156.743 122.005 156.743 114.525C156.743 109.685 155.423 105.45 152.783 101.82C150.253 98.1899 146.403 94.0649 141.233 89.4449C136.943 85.4849 133.478 82.0199 130.838 79.0499C128.198 75.9699 125.943 72.2849 124.073 67.9949C122.203 63.7049 121.268 58.8099 121.268 53.3099ZM228.356 74.2649V90.7649H203.441V124.59H234.791V141.09H185.291V25.5899H234.791V42.0899H203.441V74.2649H228.356ZM244.553 53.3099C244.553 44.0699 246.918 36.9199 251.648 31.8599C256.378 26.7999 263.198 24.2699 272.108 24.2699C281.018 24.2699 287.838 26.7999 292.568 31.8599C297.298 36.9199 299.663 44.0699 299.663 53.3099V113.37C299.663 122.61 297.298 129.76 292.568 134.82C287.838 139.88 281.018 142.41 272.108 142.41C263.198 142.41 256.378 139.88 251.648 134.82C246.918 129.76 244.553 122.61 244.553 113.37V53.3099ZM262.703 114.525C262.703 122.115 265.838 125.91 272.108 125.91C278.378 125.91 281.513 122.115 281.513 114.525V52.1549C281.513 44.5649 278.378 40.7699 272.108 40.7699C265.838 40.7699 262.703 44.5649 262.703 52.1549V114.525Z" fill="white"/>
<path d="M33.125 156.199V168.799H30.227V158.575H24.539V168.799H21.641V156.199H33.125ZM43.5024 156.199C44.6184 156.199 45.5844 156.385 46.4004 156.757C47.2284 157.129 47.8644 157.657 48.3084 158.341C48.7524 159.025 48.9744 159.835 48.9744 160.771C48.9744 161.695 48.7524 162.505 48.3084 163.201C47.8644 163.885 47.2284 164.413 46.4004 164.785C45.5844 165.145 44.6184 165.325 43.5024 165.325H40.9644V168.799H38.0484V156.199H43.5024ZM43.3404 162.949C44.2164 162.949 44.8824 162.763 45.3384 162.391C45.7944 162.007 46.0224 161.467 46.0224 160.771C46.0224 160.063 45.7944 159.523 45.3384 159.151C44.8824 158.767 44.2164 158.575 43.3404 158.575H40.9644V162.949H43.3404ZM58.8858 169.015C57.5778 169.015 56.3958 168.733 55.3398 168.169C54.2958 167.605 53.4738 166.831 52.8738 165.847C52.2858 164.851 51.9918 163.735 51.9918 162.499C51.9918 161.263 52.2858 160.153 52.8738 159.169C53.4738 158.173 54.2958 157.393 55.3398 156.829C56.3958 156.265 57.5778 155.983 58.8858 155.983C60.1938 155.983 61.3698 156.265 62.4138 156.829C63.4578 157.393 64.2798 158.173 64.8798 159.169C65.4798 160.153 65.7798 161.263 65.7798 162.499C65.7798 163.735 65.4798 164.851 64.8798 165.847C64.2798 166.831 63.4578 167.605 62.4138 168.169C61.3698 168.733 60.1938 169.015 58.8858 169.015ZM58.8858 166.531C59.6298 166.531 60.3018 166.363 60.9018 166.027C61.5018 165.679 61.9698 165.199 62.3058 164.587C62.6538 163.975 62.8278 163.279 62.8278 162.499C62.8278 161.719 62.6538 161.023 62.3058 160.411C61.9698 159.799 61.5018 159.325 60.9018 158.989C60.3018 158.641 59.6298 158.467 58.8858 158.467C58.1418 158.467 57.4698 158.641 56.8698 158.989C56.2698 159.325 55.7958 159.799 55.4478 160.411C55.1118 161.023 54.9438 161.719 54.9438 162.499C54.9438 163.279 55.1118 163.975 55.4478 164.587C55.7958 165.199 56.2698 165.679 56.8698 166.027C57.4698 166.363 58.1418 166.531 58.8858 166.531ZM82.4706 166.423V171.409H79.7706V168.799H70.8786V171.409H68.1786L68.1966 166.423H68.7006C69.4566 166.399 69.9906 165.847 70.3026 164.767C70.6146 163.687 70.8066 162.145 70.8786 160.141L71.0226 156.199H80.7066V166.423H82.4706ZM73.4526 160.411C73.3926 161.911 73.2666 163.171 73.0746 164.191C72.8826 165.199 72.5886 165.943 72.1926 166.423H77.8266V158.575H73.5066L73.4526 160.411ZM94.9636 162.229C95.7316 162.457 96.3196 162.829 96.7276 163.345C97.1356 163.861 97.3396 164.497 97.3396 165.253C97.3396 166.369 96.9136 167.239 96.0616 167.863C95.2216 168.487 94.0156 168.799 92.4436 168.799H86.2336V156.199H92.1016C93.5656 156.199 94.7056 156.481 95.5216 157.045C96.3376 157.609 96.7456 158.413 96.7456 159.457C96.7456 160.081 96.5896 160.633 96.2776 161.113C95.9656 161.581 95.5276 161.953 94.9636 162.229ZM89.1316 161.419H91.8496C92.4856 161.419 92.9656 161.293 93.2896 161.041C93.6136 160.777 93.7756 160.393 93.7756 159.889C93.7756 159.397 93.6076 159.019 93.2716 158.755C92.9476 158.491 92.4736 158.359 91.8496 158.359H89.1316V161.419ZM92.3356 166.639C93.7036 166.639 94.3876 166.099 94.3876 165.019C94.3876 163.975 93.7036 163.453 92.3356 163.453H89.1316V166.639H92.3356ZM101.446 156.199H104.344V164.407L110.356 156.199H113.092V168.799H110.212V160.609L104.2 168.799H101.446V156.199ZM129.459 163.723H127.623V168.799H124.761V163.723H122.889L120.063 168.799H116.697L120.477 162.211L116.931 156.199H120.009L122.835 161.293H124.761V156.199H127.623V161.293H129.495L132.339 156.199H135.417L131.889 162.211L135.651 168.799H132.285L129.459 163.723ZM148.604 166.459V168.799H138.848V156.199H148.37V158.539H141.746V161.275H147.596V163.543H141.746V166.459H148.604ZM164.316 156.199V168.799H161.4V163.633H155.676V168.799H152.76V156.199H155.676V161.167H161.4V156.199H164.316ZM169.273 156.199H172.171V164.407L178.183 156.199H180.919V168.799H178.039V160.609L172.027 168.799H169.273V156.199ZM195.612 166.459V168.799H185.856V156.199H195.378V158.539H188.754V161.275H194.604V163.543H188.754V166.459H195.612ZM212.623 169.015C211.339 169.015 210.175 168.739 209.131 168.187C208.099 167.623 207.283 166.849 206.683 165.865C206.095 164.869 205.801 163.747 205.801 162.499C205.801 161.251 206.095 160.135 206.683 159.151C207.283 158.155 208.099 157.381 209.131 156.829C210.175 156.265 211.345 155.983 212.641 155.983C213.733 155.983 214.717 156.175 215.593 156.559C216.481 156.943 217.225 157.495 217.825 158.215L215.953 159.943C215.101 158.959 214.045 158.467 212.785 158.467C212.005 158.467 211.309 158.641 210.697 158.989C210.085 159.325 209.605 159.799 209.257 160.411C208.921 161.023 208.753 161.719 208.753 162.499C208.753 163.279 208.921 163.975 209.257 164.587C209.605 165.199 210.085 165.679 210.697 166.027C211.309 166.363 212.005 166.531 212.785 166.531C214.045 166.531 215.101 166.033 215.953 165.037L217.825 166.765C217.225 167.497 216.481 168.055 215.593 168.439C214.705 168.823 213.715 169.015 212.623 169.015ZM229.811 166.099H223.961L222.845 168.799H219.857L225.473 156.199H228.353L233.987 168.799H230.927L229.811 166.099ZM228.893 163.885L226.895 159.061L224.897 163.885H228.893ZM237.458 156.199H240.356V164.407L246.368 156.199H249.104V168.799H246.224V160.609L240.212 168.799H237.458V156.199ZM243.272 155.389C240.968 155.389 239.804 154.471 239.78 152.635H241.778C241.802 153.511 242.3 153.949 243.272 153.949C243.752 153.949 244.118 153.841 244.37 153.625C244.622 153.397 244.754 153.067 244.766 152.635H246.764C246.752 153.535 246.458 154.219 245.882 154.687C245.306 155.155 244.436 155.389 243.272 155.389ZM263.671 158.575H259.639V168.799H256.759V158.575H252.745V156.199H263.671V158.575ZM273.139 169.015C271.831 169.015 270.649 168.733 269.593 168.169C268.549 167.605 267.727 166.831 267.127 165.847C266.539 164.851 266.245 163.735 266.245 162.499C266.245 161.263 266.539 160.153 267.127 159.169C267.727 158.173 268.549 157.393 269.593 156.829C270.649 156.265 271.831 155.983 273.139 155.983C274.447 155.983 275.623 156.265 276.667 156.829C277.711 157.393 278.533 158.173 279.133 159.169C279.733 160.153 280.033 161.263 280.033 162.499C280.033 163.735 279.733 164.851 279.133 165.847C278.533 166.831 277.711 167.605 276.667 168.169C275.623 168.733 274.447 169.015 273.139 169.015ZM273.139 166.531C273.883 166.531 274.555 166.363 275.155 166.027C275.755 165.679 276.223 165.199 276.559 164.587C276.907 163.975 277.081 163.279 277.081 162.499C277.081 161.719 276.907 161.023 276.559 160.411C276.223 159.799 275.755 159.325 275.155 158.989C274.555 158.641 273.883 158.467 273.139 158.467C272.395 158.467 271.723 158.641 271.123 158.989C270.523 159.325 270.049 159.799 269.701 160.411C269.365 161.023 269.197 161.719 269.197 162.499C269.197 163.279 269.365 163.975 269.701 164.587C270.049 165.199 270.523 165.679 271.123 166.027C271.723 166.363 272.395 166.531 273.139 166.531ZM292.809 162.229C293.577 162.457 294.165 162.829 294.573 163.345C294.981 163.861 295.185 164.497 295.185 165.253C295.185 166.369 294.759 167.239 293.907 167.863C293.067 168.487 291.861 168.799 290.289 168.799H284.079V156.199H289.947C291.411 156.199 292.551 156.481 293.367 157.045C294.183 157.609 294.591 158.413 294.591 159.457C294.591 160.081 294.435 160.633 294.123 161.113C293.811 161.581 293.373 161.953 292.809 162.229ZM286.977 161.419H289.695C290.331 161.419 290.811 161.293 291.135 161.041C291.459 160.777 291.621 160.393 291.621 159.889C291.621 159.397 291.453 159.019 291.117 158.755C290.793 158.491 290.319 158.359 289.695 158.359H286.977V161.419ZM290.181 166.639C291.549 166.639 292.233 166.099 292.233 165.019C292.233 163.975 291.549 163.453 290.181 163.453H286.977V166.639H290.181Z" fill="white"/>
</svg>
