<svg width="102" height="102" viewBox="0 0 102 102" fill="none" xmlns="http://www.w3.org/2000/svg">
<g clip-path="url(#clip0)">
<path d="M95.7405 96.7003C95.7405 99.6274 93.3676 102 90.4405 102H11.5588C8.63168 102 6.25879 99.6274 6.25879 96.7003V44.1135C6.25879 41.1864 8.63168 38.8135 11.5588 38.8135H90.4405C93.3676 38.8135 95.7405 41.1864 95.7405 44.1135V96.7003Z" fill="#548AFF"/>
<path d="M90.4407 38.8135H86.8418C89.7689 38.8135 92.1418 41.1864 92.1418 44.1135V96.7003C92.1418 99.6274 89.7689 102 86.8418 102H90.4407C93.3678 102 95.7407 99.6274 95.7407 96.7003V44.1135C95.7407 41.1864 93.3678 38.8135 90.4407 38.8135Z" fill="#3D7AFF"/>
<path d="M88.397 45.8691H15.8503C15.6915 45.8691 15.562 46.006 15.562 46.1739V94.6399C15.562 94.8078 15.6913 94.9447 15.8503 94.9447H88.397C88.556 94.9447 88.6854 94.8078 88.6854 94.6399V46.1739C88.6854 46.0058 88.556 45.8691 88.397 45.8691Z" fill="#D3EFFB"/>
<path d="M88.3965 45.8691H84.5464C84.7054 45.8691 84.8349 46.006 84.8349 46.1739V94.6399C84.8349 94.8078 84.7056 94.9447 84.5464 94.9447H88.3965C88.5555 94.9447 88.685 94.8078 88.685 94.6399V46.1739C88.685 46.0058 88.5555 45.8691 88.3965 45.8691Z" fill="#B1E4F9"/>
<path d="M10.9552 73.2022C10.1049 73.2022 9.41602 72.5131 9.41602 71.6631V69.1495C9.41602 68.2992 10.1051 67.6104 10.9552 67.6104C11.8052 67.6104 12.4943 68.2994 12.4943 69.1495V71.6631C12.4943 72.5131 11.8052 73.2022 10.9552 73.2022Z" fill="#2B4D66"/>
<path d="M76.6023 87.3281C65.7981 90.8349 68.4087 81.2706 61.6615 78.318C58.4675 76.9201 56.3605 73.8153 56.3605 70.3287V64.7002H45.639V70.263C45.639 73.8184 43.58 77.0954 40.3178 78.5096C34.7266 80.9337 33.6424 86.7637 26.9871 85.4156C18.6353 83.724 15.5615 89.3272 15.5615 89.3272V94.64C15.5615 94.8079 15.6908 94.9446 15.8498 94.9446H88.3965C88.5555 94.9446 88.685 94.8077 88.685 94.6398V90.4618C86.6308 87.9211 82.8622 85.2962 76.6023 87.3281Z" fill="#F6F1F1"/>
<path d="M50.643 67.3339C52.3822 67.3339 53.7919 68.7437 53.7919 70.4827V72.9624C53.7919 76.4489 55.8986 79.5537 59.0929 80.9517C65.8401 83.9045 63.2297 93.4688 74.0339 89.9617C81.8919 87.4111 85.8247 92.1982 87.3676 94.9446H88.3966C88.5556 94.9446 88.6851 94.8077 88.6851 94.6398V90.4618C88.6849 90.4616 88.6849 90.4616 88.6847 90.4614C83.7777 84.3946 78.0283 87.1547 74.6589 87.851C69.128 88.9925 67.951 85.8317 66.1096 82.7066C63.9849 79.1003 62.7571 79.0095 60.7797 77.8735C58.9572 76.8264 57.5795 75.1871 56.8778 73.2594C56.0502 70.9861 56.4786 69.5986 56.3602 64.7002H45.6387V67.3337H50.643V67.3339Z" fill="#DAE4EA"/>
<path d="M37.6641 56.0242L41.5062 51.9033H58.679L64.3359 56.0242L59.8762 63.2401C59.3152 64.1477 58.3242 64.7002 57.2572 64.7002H44.7425C43.6755 64.7002 42.6846 64.1477 42.1236 63.2401L37.6641 56.0242Z" fill="#548AFF"/>
<path d="M61.6417 51.9033L54.5154 63.2403C53.9544 64.1479 52.9635 64.7003 51.8965 64.7003H57.2573C58.3243 64.7003 59.3152 64.1479 59.8762 63.2403L64.3359 56.0242L61.6417 51.9033Z" fill="#3D7AFF"/>
<path d="M54.6813 66.24C53.831 66.24 53.1421 65.5509 53.1421 64.7009V60.8272C53.1421 59.977 53.8312 59.2881 54.6813 59.2881C55.5313 59.2881 56.2204 59.9772 56.2204 60.8272V64.7009C56.2204 65.5509 55.5313 66.24 54.6813 66.24Z" fill="#DD3E33"/>
<path d="M47.3185 66.24C46.4682 66.24 45.7793 65.5509 45.7793 64.7009V60.8272C45.7793 59.977 46.4684 59.2881 47.3185 59.2881C48.1685 59.2881 48.8576 59.9772 48.8576 60.8272V64.7009C48.8576 65.5509 48.1685 66.24 47.3185 66.24Z" fill="#DD3E33"/>
<path d="M32.1916 45.8408L22.8106 51.8116C22.7223 51.8678 22.6735 51.9694 22.6847 52.0734L24.6974 70.674C24.7107 70.7972 24.8046 70.8962 24.9267 70.9161C25.0488 70.936 25.1693 70.8721 25.2211 70.7597L29.1864 62.1519C29.2025 62.1168 29.226 62.0855 29.2551 62.06L36.1465 56.0245L37.3549 49.7055L32.1916 45.8408Z" fill="#DD3E33"/>
<path d="M69.8069 45.8408L79.1879 51.8116C79.2762 51.8678 79.325 51.9694 79.3138 52.0734L77.3011 70.674C77.2878 70.7972 77.1939 70.8962 77.0718 70.9161C76.9497 70.936 76.8292 70.8721 76.7774 70.7597L72.8121 62.1519C72.796 62.1168 72.7725 62.0855 72.7434 62.06L65.852 56.0245L64.6436 49.7055L69.8069 45.8408Z" fill="#DD3E33"/>
<path d="M64.5797 13.3222L60.9633 11.2617H41.1665L37.4204 13.3222C33.8416 18.9651 31.8833 25.5644 31.8833 32.3869V55.2863C31.8833 55.6937 32.2136 56.0238 32.6208 56.0238H69.3791C69.7865 56.0238 70.1166 55.6935 70.1166 55.2863V32.3869C70.1168 25.5642 68.1582 18.9649 64.5797 13.3222Z" fill="#F6F1F1"/>
<path d="M64.5796 13.3222L60.9632 11.2617H56.5859L60.2024 13.3222C63.7811 18.9651 65.7394 25.5644 65.7394 32.3869V56.0238H69.379C69.7864 56.0238 70.1165 55.6935 70.1165 55.2863V32.3869C70.1167 25.5642 68.1582 18.9649 64.5796 13.3222Z" fill="#DAE4EA"/>
<path d="M51.0002 43.5346C57.2831 43.5346 62.3764 38.4413 62.3764 32.1584C62.3764 25.8755 57.2831 20.7822 51.0002 20.7822C44.7173 20.7822 39.624 25.8755 39.624 32.1584C39.624 38.4413 44.7173 43.5346 51.0002 43.5346Z" fill="#D3EFFB"/>
<path d="M50.9998 20.7822C50.2119 20.7822 49.4429 20.8625 48.7002 21.0149C53.8807 22.0783 57.7768 26.6632 57.7768 32.1584C57.7768 37.6535 53.8807 42.2383 48.7002 43.3019C49.4429 43.4543 50.2121 43.5346 50.9998 43.5346C57.2825 43.5346 62.376 38.4414 62.376 32.1584C62.376 25.8757 57.2827 20.7822 50.9998 20.7822Z" fill="#B1E4F9"/>
<path d="M51.0001 39.0414C47.2046 39.0414 44.1167 35.9535 44.1167 32.158C44.1167 28.3625 47.2046 25.2744 51.0001 25.2744C54.7956 25.2744 57.8837 28.3625 57.8837 32.158C57.8837 35.9535 54.7956 39.0414 51.0001 39.0414ZM51.0001 28.3527C48.9021 28.3527 47.195 30.0596 47.195 32.158C47.195 34.256 48.9019 35.9631 51.0001 35.9631C53.0983 35.9631 54.8054 34.2562 54.8054 32.158C54.8052 30.0596 53.0983 28.3527 51.0001 28.3527Z" fill="#365E7D"/>
<path d="M64.5792 13.3224C62.7267 10.4013 60.4404 7.73611 57.7657 5.42976L51.824 0.306448C51.3503 -0.102149 50.6488 -0.102149 50.1751 0.306448L44.2334 5.42976C41.5587 7.73611 39.2725 10.4013 37.4199 13.3224H64.5792Z" fill="#DD3E33"/>
<path d="M57.7662 5.42976L51.8245 0.306448C51.3508 -0.102149 50.6493 -0.102149 50.1756 0.306448L48.8115 1.48264L53.3892 5.42976C56.0639 7.73611 58.3501 10.4013 60.2027 13.3224H64.5799C62.7271 10.4013 60.4409 7.73611 57.7662 5.42976Z" fill="#F36C62"/>
<path d="M59.523 57.563C58.6728 57.563 57.9839 56.8739 57.9839 56.0239V51.505C57.9839 50.6547 58.673 49.9658 59.523 49.9658C60.3733 49.9658 61.0622 50.6549 61.0622 51.505V56.0239C61.0624 56.8739 60.3733 57.563 59.523 57.563Z" fill="#DD3E33"/>
<path d="M42.4762 57.563C41.6259 57.563 40.937 56.8739 40.937 56.0239V51.505C40.937 50.6547 41.6261 49.9658 42.4762 49.9658C43.3262 49.9658 44.0153 50.6549 44.0153 51.505V56.0239C44.0153 56.8739 43.3264 57.563 42.4762 57.563Z" fill="#DD3E33"/>
<path d="M34.1531 93.0594C33.476 93.0594 32.8552 92.6088 32.6687 91.9239C31.9023 89.1067 33.5704 86.1912 36.3873 85.4246C37.7512 85.053 39.1792 85.2353 40.407 85.9376C41.6346 86.6398 42.5153 87.7781 42.8867 89.1432C43.1098 89.9634 42.6257 90.8093 41.8053 91.0326C40.9853 91.2549 40.1392 90.7716 39.9159 89.9512C39.7605 89.3801 39.392 88.9035 38.8784 88.6099C38.3646 88.3156 37.7667 88.2393 37.1956 88.3951C36.0164 88.7161 35.3183 89.9365 35.6393 91.1159C35.8624 91.936 35.3783 92.7819 34.5579 93.0053C34.423 93.0417 34.287 93.0594 34.1531 93.0594Z" fill="#DAE4EA"/>
<path d="M62.3704 92.5809C62.2399 92.5809 62.1074 92.5644 61.9754 92.5291C61.1536 92.3114 60.6639 91.4689 60.8814 90.6471C60.9821 90.2668 60.9287 89.87 60.7308 89.5297C60.5332 89.1896 60.2147 88.9468 59.8345 88.846C59.4542 88.7452 59.0572 88.7986 58.7167 88.9966C58.3767 89.1942 58.1338 89.5128 58.033 89.8929C57.8153 90.7149 56.9716 91.2047 56.1512 90.987C55.3292 90.7694 54.8393 89.9269 55.0571 89.1052C55.3681 87.93 56.1183 86.946 57.1696 86.335C58.2211 85.7242 59.4473 85.5593 60.6223 85.8703C61.7973 86.1812 62.7812 86.9315 63.3922 87.9828C64.003 89.0338 64.1682 90.26 63.857 91.4352C63.6749 92.1251 63.0517 92.5809 62.3704 92.5809Z" fill="#DAE4EA"/>
<path d="M49.9688 78.2195C49.4132 78.2195 48.8522 77.9202 48.5444 77.2963C48.2844 76.7692 48.4216 76.1524 48.7882 75.693C49.2115 75.1625 49.1643 74.2265 49.0313 73.4892C48.9117 72.8268 49.242 72.1654 49.8413 71.8588C50.7732 71.3821 51.896 71.9594 52.054 72.9944C52.2801 74.4752 52.2128 76.3715 51.1601 77.6561C50.8555 78.0272 50.4138 78.2195 49.9688 78.2195Z" fill="#DAE4EA"/>
</g>
<defs>
<clipPath id="clip0">
<rect width="102" height="102" fill="white"/>
</clipPath>
</defs>
</svg>
