<svg width="102" height="102" viewBox="0 0 102 102" fill="none" xmlns="http://www.w3.org/2000/svg">
<path d="M95.7405 96.7003C95.7405 99.6274 93.3676 102 90.4405 102H11.5588C8.63168 102 6.25879 99.6274 6.25879 96.7003V44.1135C6.25879 41.1864 8.63168 38.8135 11.5588 38.8135H90.4405C93.3676 38.8135 95.7405 41.1864 95.7405 44.1135V96.7003Z" fill="#548AFF"/>
<path d="M90.4407 38.8135H86.8418C89.7689 38.8135 92.1418 41.1864 92.1418 44.1135V96.7003C92.1418 99.6274 89.7689 102 86.8418 102H90.4407C93.3678 102 95.7407 99.6274 95.7407 96.7003V44.1135C95.7407 41.1864 93.3678 38.8135 90.4407 38.8135Z" fill="#3D7AFF"/>
<path d="M88.397 45.8691H15.8503C15.6915 45.8691 15.562 46.006 15.562 46.1739V94.6399C15.562 94.8078 15.6913 94.9447 15.8503 94.9447H88.397C88.556 94.9447 88.6854 94.8078 88.6854 94.6399V46.1739C88.6854 46.0058 88.556 45.8691 88.397 45.8691Z" fill="#D3EFFB"/>
<path d="M88.3965 45.8691H84.5464C84.7054 45.8691 84.8349 46.006 84.8349 46.1739V94.6399C84.8349 94.8078 84.7056 94.9447 84.5464 94.9447H88.3965C88.5555 94.9447 88.685 94.8078 88.685 94.6399V46.1739C88.685 46.0058 88.5555 45.8691 88.3965 45.8691Z" fill="#B1E4F9"/>
<path d="M10.9552 73.2032C10.1049 73.2032 9.41602 72.5141 9.41602 71.664V69.1505C9.41602 68.3002 10.1051 67.6113 10.9552 67.6113C11.8052 67.6113 12.4943 68.3004 12.4943 69.1505V71.664C12.4943 72.5141 11.8052 73.2032 10.9552 73.2032Z" fill="#2B4D66"/>
<path d="M52.9996 61.129C65.723 61.129 76.0319 50.8189 76.0319 38.0968C76.0319 25.3747 65.723 15.0645 52.9996 15.0645C40.2914 15.0645 29.9673 25.3747 29.9673 38.0968C29.9673 50.8189 40.2914 61.129 52.9996 61.129ZM52.9996 11C67.9703 11 80.0964 23.1261 80.0964 38.0968C80.0964 51.6855 70.0978 62.9311 57.0641 64.8952C55.7377 65.0851 54.3829 65.1935 52.9996 65.1935C51.6176 65.1935 50.2628 65.0851 48.9351 64.8952C35.9014 62.9311 25.9028 51.6855 25.9028 38.0968C25.9028 23.1261 38.0421 11 52.9996 11V11Z" fill="#E4BEBC"/>
<path d="M53 15.0645C65.7235 15.0645 76.0323 25.3746 76.0323 38.0967C76.0323 50.8188 65.7235 61.129 53 61.129C40.2918 61.129 29.9678 50.8188 29.9678 38.0967C29.9678 25.3746 40.2918 15.0645 53 15.0645Z" fill="#DD3E33"/>
<path d="M53.0003 15.0645C52.0815 15.0645 51.1824 15.1333 50.292 15.2378C61.7334 16.5807 70.6132 26.2935 70.6132 38.0967C70.6132 49.9 61.7334 59.6127 50.292 60.9557C51.1824 61.0602 52.0815 61.129 53.0003 61.129C65.7238 61.129 76.0326 50.8188 76.0326 38.0967C76.0326 25.3746 65.7238 15.0645 53.0003 15.0645Z" fill="#F36C62"/>
<path d="M57.0646 64.8955V70.6132H48.9355V64.8955C50.2633 65.0854 51.6181 65.1939 53.0001 65.1939C54.3833 65.1939 55.7382 65.0854 57.0646 64.8955Z" fill="#CCD1D9"/>
<path d="M61.129 70.6133L62.4839 73.323L60.1129 78.7423L57.0645 77.0084L53 74.6778L48.9355 77.0355L45.9817 78.7423L45.9023 78.7827L43.5161 73.323L44.871 70.6133H61.129Z" fill="#E6E9ED"/>
<path d="M53.0001 74.6777L57.0646 77.0084L54.3549 80.0971H51.6452L48.9355 77.0355L53.0001 74.6777Z" fill="#5D9CEC"/>
<path d="M48.9355 77.0352L51.6452 80.0968L49.4502 86.871L45.9023 78.7823L45.9817 78.7419L48.9355 77.0352Z" fill="#CCD1D9"/>
<path d="M57.0642 77.0078L60.1126 78.7417L56.5627 86.8575L54.3545 80.0966L57.0642 77.0078Z" fill="#CCD1D9"/>
<path d="M54.3549 80.0967L56.5631 86.8577V86.8709L53 94.9999L49.4502 86.8709L51.6452 80.0967H54.3549Z" fill="#4A89DC"/>
<path d="M69.258 76.0322C75.2615 76.0322 80.0967 80.8827 80.0967 86.8709V93.6451C80.0967 94.39 79.502 95 78.7419 95H57.0645L65.1935 86.8709L62.4838 84.1613L67.9032 78.7419L65.1935 76.0322H69.258Z" fill="#434A54"/>
<path d="M69.2579 76.0322H65.1934L65.3032 76.142C70.6074 76.8558 74.6772 81.3795 74.6772 86.8709V93.6451C74.6772 94.39 74.0825 95 73.3224 95H78.7417C79.5019 95 80.0966 94.39 80.0966 93.6451V86.8709C80.0966 80.8827 75.2614 76.0322 69.2579 76.0322Z" fill="#353B44"/>
<path d="M65.1936 76.0319L67.9032 78.7416L62.4839 84.161L65.1936 86.8706L57.0645 94.9997H53L56.5631 86.8706V86.8574L60.1129 78.7416L62.4839 73.3223L65.1936 76.0319Z" fill="#656D78"/>
<path d="M49.4506 86.8706L53.0004 94.9997H48.9359L40.8068 86.8706L43.5165 84.161L38.0972 78.7416L40.8068 76.0319H40.8221L43.5165 73.3223L45.9027 78.782L49.4506 86.8706Z" fill="#656D78"/>
<path d="M36.7568 76.0322H40.8061L38.0964 78.7419L43.5157 84.1613L40.8061 86.8709L48.9351 95H27.2729C26.5128 95 25.918 94.39 25.918 93.6451L25.9028 86.8709C25.9028 80.8827 30.7533 76.0322 36.7568 76.0322Z" fill="#434A54"/>
</svg>
