<svg width="102" height="109" viewBox="0 0 102 109" fill="none" xmlns="http://www.w3.org/2000/svg">
<path d="M95.7405 96.7003C95.7405 99.6274 93.3676 102 90.4405 102H11.5588C8.63168 102 6.25879 99.6274 6.25879 96.7003V44.1135C6.25879 41.1864 8.63168 38.8135 11.5588 38.8135H90.4405C93.3676 38.8135 95.7405 41.1864 95.7405 44.1135V96.7003Z" fill="#548AFF"/>
<path d="M90.4407 38.8135H86.8418C89.7689 38.8135 92.1418 41.1864 92.1418 44.1135V96.7003C92.1418 99.6274 89.7689 102 86.8418 102H90.4407C93.3678 102 95.7407 99.6274 95.7407 96.7003V44.1135C95.7407 41.1864 93.3678 38.8135 90.4407 38.8135Z" fill="#3D7AFF"/>
<path d="M88.397 45.8691H15.8503C15.6915 45.8691 15.562 46.006 15.562 46.1739V94.6399C15.562 94.8078 15.6913 94.9447 15.8503 94.9447H88.397C88.556 94.9447 88.6854 94.8078 88.6854 94.6399V46.1739C88.6854 46.0058 88.556 45.8691 88.397 45.8691Z" fill="#D3EFFB"/>
<path d="M88.3965 45.8691H84.5464C84.7054 45.8691 84.8349 46.006 84.8349 46.1739V94.6399C84.8349 94.8078 84.7056 94.9447 84.5464 94.9447H88.3965C88.5555 94.9447 88.685 94.8078 88.685 94.6399V46.1739C88.685 46.0058 88.5555 45.8691 88.3965 45.8691Z" fill="#B1E4F9"/>
<path d="M10.9552 73.2022C10.1049 73.2022 9.41602 72.5131 9.41602 71.6631V69.1495C9.41602 68.2992 10.1051 67.6104 10.9552 67.6104C11.8052 67.6104 12.4943 68.2994 12.4943 69.1495V71.6631C12.4943 72.5131 11.8052 73.2022 10.9552 73.2022Z" fill="#2B4D66"/>
<path d="M83.8125 82.75L79.875 48.625H22.125L18.1875 82.75C19.9277 84.4906 20.9053 86.8512 20.9053 89.3125C20.9053 91.7738 19.9277 94.1344 18.1875 95.875H45.75C46.7722 95.8729 47.7796 95.6312 48.6914 95.1691C49.6032 94.7071 50.3939 94.0376 51 93.2146C51.6061 94.0376 52.3968 94.7071 53.3086 95.1691C54.2204 95.6312 55.2278 95.8729 56.25 95.875H83.8125C82.0723 94.1344 81.0947 91.7738 81.0947 89.3125C81.0947 86.8512 82.0723 84.4906 83.8125 82.75Z" fill="#F8F8FE"/>
<path d="M45.75 48.625H56.25V89.3125H45.75V48.625Z" fill="#E3E3FF"/>
<path d="M83.8125 82.75L79.875 48.625H77.25L81.1875 82.75C79.4473 84.4906 78.4697 86.8512 78.4697 89.3125C78.4697 91.7738 79.4473 94.1344 81.1875 95.875H83.8125C82.0723 94.1344 81.0947 91.7738 81.0947 89.3125C81.0947 86.8512 82.0723 84.4906 83.8125 82.75Z" fill="#E3E3FF"/>
<path d="M56.25 82.75C55.2278 82.7521 54.2204 82.9938 53.3086 83.4559C52.3968 83.9179 51.6061 84.5874 51 85.4104C50.3939 84.5874 49.6032 83.9179 48.6914 83.4559C47.7796 82.9938 46.7722 82.7521 45.75 82.75H18.1875C19.9277 84.4906 20.9053 86.8512 20.9053 89.3125C20.9053 91.7738 19.9277 94.1344 18.1875 95.875H45.75C46.7722 95.8729 47.7796 95.6312 48.6914 95.1691C49.6032 94.7071 50.3939 94.0376 51 93.2146C51.6061 94.0376 52.3968 94.7071 53.3086 95.1691C54.2204 95.6312 55.2278 95.8729 56.25 95.875H83.8125C82.0723 94.1344 81.0947 91.7738 81.0947 89.3125C81.0947 86.8512 82.0723 84.4906 83.8125 82.75H56.25Z" fill="#2298D1"/>
<path d="M57.5625 86.6875H74.625V89.3125H57.5625V86.6875Z" fill="#376DE3"/>
<path d="M44.4371 89.3125H20.9053C20.9055 90.2011 20.7782 91.0851 20.5273 91.9375H44.4371V89.3125Z" fill="#376DE3"/>
<path d="M37.875 65.6875H26.0625L27.375 53.875H37.875V65.6875Z" fill="#5952F9"/>
<path d="M24.75 69.625H32.625V72.25H24.75V69.625Z" fill="#376DE3"/>
<path d="M35.25 69.625H37.875V72.25H35.25V69.625Z" fill="#376DE3"/>
<path d="M23.4375 74.875H35.25V77.5H23.4375V74.875Z" fill="#376DE3"/>
<path d="M37.875 74.875H44.4375V77.5H37.875V74.875Z" fill="#376DE3"/>
<path d="M62.8125 53.875H75.9375V56.5H62.8125V53.875Z" fill="#376DE3"/>
<path d="M61.5 59.125H64.125V61.75H61.5V59.125Z" fill="#376DE3"/>
<path d="M66.75 59.125H77.25V61.75H66.75V59.125Z" fill="#376DE3"/>
<path d="M60.1875 64.375H66.75V67H60.1875V64.375Z" fill="#376DE3"/>
<path d="M69.375 64.375H77.25V67H69.375V64.375Z" fill="#376DE3"/>
<path d="M75.9375 69.625H78.5625V72.25H75.9375V69.625Z" fill="#376DE3"/>
<path d="M58.875 69.625H73.3125V72.25H58.875V69.625Z" fill="#376DE3"/>
<path d="M56.25 74.875H69.375V77.5H56.25V74.875Z" fill="#376DE3"/>
<path d="M72 74.875H78.5625V77.5H72V74.875Z" fill="#376DE3"/>
<path d="M74.625 105.062L69.375 99.8125L64.125 105.062V88H74.625V105.062Z" fill="#DD3E33"/>
<path d="M66.6435 33.3172C66.6468 30.7045 65.994 28.1346 64.7471 25.8523C63.5003 23.5699 61.7011 21.6513 59.5209 20.2793C57.3408 18.9072 54.8525 18.1275 52.293 18.0143C49.7336 17.9012 47.1884 18.4585 44.9001 19.633C42.6117 20.8076 40.6565 22.5603 39.2207 24.724C37.785 26.8878 36.9165 29.3905 36.6981 31.9936C36.4798 34.5967 36.9188 37.2135 37.9734 39.5946C39.0279 41.9756 40.6628 44.0415 42.7223 45.5953L44.1435 62H59.1435L60.5648 45.5953C62.4497 44.1769 63.9818 42.3269 65.0376 40.1944C66.0934 38.0618 66.6435 35.7062 66.6435 33.3172Z" fill="#DD3E33"/>
<path d="M43.6436 55L44.2923 62.5001L44.7922 64.5439C45.1745 66.1024 46.0565 67.4859 47.2978 68.4745C48.5392 69.4631 50.0688 70 51.6436 70C53.2183 70 54.7479 69.4631 55.9893 68.4745C57.2306 67.4859 58.1126 66.1024 58.4949 64.5439L58.9948 62.5001L59.6436 55H43.6436Z" fill="#E3E3FF"/>
<path d="M54.5107 55L54.0134 60.6281L53.5029 62.673C53.1158 64.2069 52.2343 65.5708 50.9946 66.5541C49.7549 67.5374 48.2259 68.0854 46.6436 68.1136C47.5618 68.9548 48.6832 69.5428 49.8975 69.8199C51.1118 70.097 52.3773 70.0537 53.5698 69.6942C54.7623 69.3347 55.8407 68.6713 56.6993 67.7693C57.5578 66.8673 58.167 65.7575 58.4669 64.5491L58.9811 62.5042L59.6436 55H54.5107Z" fill="#B1A6D8"/>
<path d="M44.2923 62H58.9948L59.6436 55H43.6436L44.2923 62Z" fill="#B1A6D8"/>
<path d="M49.6436 7H53.6436V11H49.6436V7Z" fill="#DD3E33"/>
<path d="M40.3857 9.61035L43.9094 8.14978L45.37 11.6735L41.8463 13.134L40.3857 9.61035Z" fill="#DD3E33"/>
<path d="M32.7412 15.6143L35.4384 12.9171L38.1356 15.6143L35.4384 18.3114L32.7412 15.6143Z" fill="#DD3E33"/>
<path d="M28 24.0654L29.4606 20.5417L32.9843 22.0023L31.5237 25.526L28 24.0654Z" fill="#DD3E33"/>
<path d="M70.2949 21.9922L73.8186 20.5316L75.2792 24.0553L71.7555 25.5159L70.2949 21.9922Z" fill="#DD3E33"/>
<path d="M65.1025 15.6172L67.7997 12.92L70.4969 15.6172L67.7997 18.3144L65.1025 15.6172Z" fill="#DD3E33"/>
<path d="M57.9072 11.6719L59.3678 8.14819L62.8915 9.60877L61.4309 13.1325L57.9072 11.6719Z" fill="#DD3E33"/>
<path d="M55.9735 34L51.6436 38.4973L47.3136 34L44.6436 36.7733L49.7552 42.0827V55H53.5319V42.0827L58.6436 36.7733L55.9735 34Z" fill="white"/>
</svg>
